<?xml version="1.0"?>
<svg id="Camada_3" data-name="Camada 3" xmlns="http://www.w3.org/2000/svg" viewBox="0 0 1000 1000">
  <defs>
    
  </defs>
  <path class="cls-1" d="M191.02,377.56c49.48-149.18,186.03-256.38,346.73-256.38s303.67,112.31,350.08,266.98"></path>
  <g>
    <path class="cls-2" d="M784.93,841.22c25.3,11.42,58.27,14.63,83.9,5.9-21.76-9.68-47.79-11.55-71.6-8.12-23.81,3.42-45.69,11.78-66.09,21.46l-15.18,7.34"></path>
    <path class="cls-2" d="M700.55,874.51c28.02-22.27,38.88-55.01,38.29-84.69-18.19,7.82-28.3,25.85-23.02,41.08,1.86,5.37,5.35,10.25,8.43,15.23"></path>
    <path class="cls-2" d="M754.9,844.54c29.23-13.91,54.5-40.32,72.54-46.61,18.05-6.29,39.29-8.5,59.22-3.58-18.08,10.98-46.13,14.03-69.36,8.18"></path>
    <path class="cls-2" d="M775.64,810.6c-4.1-3.86-8.53-7.56-11.67-11.93-8.9-12.38-5.16-29.41,8.53-38.8,8.89,25.54,12.93,53.01-17.61,84.67"></path>
    <path class="cls-2" d="M792.39,809.24c17.92-15.6,51.19-53.93,65.9-63.61,14.71-9.68,33.79-15.86,54.06-14.65-13.15,14.39-37.77,22.04-61.43,20.5"></path>
    <path class="cls-2" d="M792.39,809.24c18.77-24.09,30.49-53.26,23.89-78.41-12.11,6.29-15.99,21.38-8.86,34.38,2.52,4.58,1.84,4.42,5.2,8.7"></path>
    <path class="cls-2" d="M852.39,733.02c21.98-28.13,14.89-39.37,13.16-40.3-3.45-1.84-13.58,40.26-13.16,40.3Z"></path>
    <path class="cls-3" d="M698.21,875.64l-7.17,3.32c-23.87,10.12-49.07,17.69-75.28,22.38-20.37,3.65-41.35,5.55-62.78,5.55-158.84,0-293.25-104.62-338.07-248.72"></path>
  </g>
</svg>